<svg width="35" height="34" viewBox="0 0 35 34" fill="none" xmlns="http://www.w3.org/2000/svg">
<path d="M22.9657 5.56697L18.6972 9.82944C18.2275 10.2984 17.8594 10.8576 17.6143 11.472L17.5021 11.7837L16.4738 14.9775C16.2794 15.5814 16.2728 16.23 16.4553 16.8376C16.9308 18.422 18.5489 19.3507 20.1383 18.9933L20.3547 18.9365L23.5941 17.9642C24.2545 17.7659 24.8641 17.4301 25.3833 16.9803L25.6352 16.746L31.3316 11.0588V23.3181C31.3316 25.8162 29.3065 27.8413 26.8085 27.8413H8.0199C5.52181 27.8413 3.49658 25.8162 3.49658 23.3181L3.49712 17.4736L3.6024 17.4297L3.70426 17.3732L8.93645 14.0845L9.07306 14.012C9.53889 13.8073 10.0968 13.9691 10.3757 14.4128C10.5458 14.6835 10.581 15.0143 10.4779 15.3109L10.4148 15.4559L8.73393 18.6366L8.6364 18.838C7.97851 20.3284 8.57687 22.0955 10.0394 22.8683C10.9024 23.3244 11.9236 23.3497 12.8025 22.9486L13.0384 22.8287L15.4947 21.4421L15.6131 21.3637C16.0217 21.0517 16.1471 20.478 15.8859 20.0186C15.6247 19.5593 15.0674 19.3738 14.5904 19.5656L14.4626 19.6274L12.0145 21.0094L11.8782 21.0737C11.5989 21.1814 11.2838 21.1647 11.0149 21.0226C10.5476 20.7757 10.345 20.2244 10.5219 19.7418L10.5797 19.6121L12.2605 16.4314L12.3711 16.1996C12.7732 15.2601 12.6927 14.1763 12.1431 13.3018C11.2646 11.9042 9.46337 11.4389 8.02794 12.1999L7.82551 12.317L3.49658 15.0378V10.0902C3.49658 7.67821 5.38456 5.70719 7.76322 5.57413L8.0199 5.56697H22.9657ZM30.1842 4.93354L30.3654 5.10142L30.5331 5.28268C31.5952 6.52363 31.5387 8.39296 30.364 9.56701L24.406 15.5149C24.04 15.8802 23.5892 16.1493 23.0939 16.2979L19.8546 17.2703C19.1184 17.4913 18.3425 17.0737 18.1215 16.3374C18.0403 16.0674 18.0433 15.7791 18.1297 15.5107L19.158 12.3169C19.3107 11.843 19.574 11.4123 19.9263 11.0606L25.8979 5.09888C27.0736 3.92505 28.9436 3.87019 30.1842 4.93354Z" fill="#FF7E7E"/>
</svg>
