<svg width="35" height="34" viewBox="0 0 35 34" fill="none" xmlns="http://www.w3.org/2000/svg">
<path d="M29.0341 26.9614C28.9589 27.0968 28.8508 27.2092 28.7205 27.2874C28.5903 27.3656 28.4425 27.4067 28.2922 27.4067H7.736C7.58573 27.4065 7.43814 27.3652 7.30805 27.287C7.17797 27.2088 7.06997 27.0963 6.9949 26.961C6.91983 26.8256 6.88033 26.6721 6.88037 26.5159C6.88041 26.3596 6.91998 26.2061 6.99512 26.0708C8.6257 23.1396 11.1385 21.0378 14.0709 20.0414C12.6204 19.1436 11.4934 17.7754 10.8631 16.1471C10.2327 14.5188 10.1339 12.7203 10.5817 11.0279C11.0295 9.33548 11.9992 7.84271 13.3419 6.77882C14.6845 5.71492 16.326 5.13873 18.0141 5.13873C19.7022 5.13873 21.3436 5.71492 22.6863 6.77882C24.029 7.84271 24.9987 9.33548 25.4465 11.0279C25.8943 12.7203 25.7954 14.5188 25.1651 16.1471C24.5347 17.7754 23.4077 19.1436 21.9572 20.0414C24.8897 21.0378 27.4025 23.1396 29.033 26.0708C29.1084 26.2061 29.1481 26.3596 29.1483 26.5159C29.1485 26.6723 29.1091 26.8259 29.0341 26.9614Z" fill="#CCD2DA"/>
</svg>
