<svg width="300" height="300" viewBox="0 0 300 300" fill="none" xmlns="http://www.w3.org/2000/svg">
<g filter="url(#filter0_i_3_12486)">
<path d="M149.235 117.318C149.235 117.318 128.528 74.2676 76.9869 82.9952C76.9869 82.9952 39.8947 90.8938 33.0782 135.17C27.3228 172.564 45.316 207.119 70.2025 233.029C85.2288 248.671 104.317 261.862 122.13 274.309C129.761 279.642 137.553 284.807 145.752 289.27C146.609 289.731 147.531 290.213 148.506 290.161C149.246 290.119 149.921 289.794 150.586 289.47C175.74 277.18 198.965 261.977 219.318 242.898C232.758 230.294 245.483 216.224 254.773 200.843C254.773 200.843 288.793 137.8 244.754 96.9286C223.479 77.1896 195.943 75.9021 171.914 92.477C167.788 95.3268 164.004 98.6376 160.585 102.252C158.549 104.4 156.641 106.674 154.851 109.021C154.058 110.058 148.742 116.292 149.235 117.318Z" fill="url(#paint0_linear_3_12486)"/>
</g>
<g filter="url(#filter1_f_3_12486)">
<path fill-rule="evenodd" clip-rule="evenodd" d="M150.542 117.354C158.636 125.538 162.305 133.167 162.305 133.167C161.892 132.305 165.565 127.78 167.229 125.732C167.548 125.338 167.793 125.036 167.921 124.869C169.711 122.522 171.619 120.248 173.655 118.1C177.074 114.486 180.858 111.175 184.984 108.325C207.216 92.9896 232.451 92.9451 252.951 108.658C250.581 105.583 247.862 102.588 244.754 99.7037C223.479 79.9646 195.943 78.6771 171.914 95.2521C167.788 98.1019 164.004 101.413 160.585 105.027C158.549 107.175 156.641 109.449 154.851 111.796C154.723 111.963 154.478 112.265 154.158 112.659C153.227 113.806 151.664 115.732 150.542 117.354ZM79.2163 244.507C76.0884 241.688 73.0714 238.79 70.2025 235.804C45.316 209.894 27.3228 175.339 33.0782 137.946C39.8947 93.6688 76.9869 85.7702 76.9869 85.7702C113.049 79.6638 134.017 98.9053 143.358 111.013C131.705 102.082 114.288 94.7403 90.0569 98.8434C90.0569 98.8434 52.9647 106.742 46.1482 151.019C40.7105 186.347 56.4715 219.143 79.2163 244.507Z" fill="url(#paint1_linear_3_12486)"/>
</g>
<path d="M77.0949 106.835C75.913 106.835 74.763 106.25 74.0816 105.185C73.0275 103.524 73.5173 101.32 75.1783 100.266C80.5979 96.8158 86.0388 95.9747 86.2624 95.9427C88.2109 95.6659 90.021 96.9968 90.3084 98.9453C90.5959 100.894 89.2543 102.693 87.3165 102.991C87.2207 103.002 83.0681 103.694 79.0008 106.281C78.4152 106.654 77.755 106.835 77.0949 106.835Z" fill="white" fill-opacity="0.5"/>
<path d="M49.4073 139.177C49.2476 139.177 49.0879 139.166 48.9175 139.145C46.969 138.879 45.6061 137.08 45.8723 135.131C48.5874 115.241 63.9412 108.214 64.5907 107.927C66.3901 107.128 68.4983 107.937 69.2969 109.737C70.0955 111.536 69.2863 113.634 67.4975 114.432C66.9757 114.677 55.0931 120.278 52.9316 136.1C52.6867 137.878 51.1535 139.177 49.4073 139.177Z" fill="white" fill-opacity="0.5"/>
<g filter="url(#filter2_f_3_12486)">
<ellipse cx="23.1836" cy="12.2937" rx="23.1836" ry="12.2937" transform="matrix(0.999838 -0.0180236 -0.0806689 0.996741 192.643 183.897)" fill="#FF7272"/>
</g>
<g filter="url(#filter3_f_3_12486)">
<ellipse cx="23.1836" cy="12.2937" rx="23.1836" ry="12.2937" transform="matrix(0.999838 -0.0180236 -0.0806689 0.996741 62.6046 185.875)" fill="#FF7272"/>
</g>
<path d="M154.505 182.036C153.834 182.036 153.163 181.738 152.716 181.163C150.661 178.533 148.723 177.34 148.713 177.319C147.648 176.669 147.297 175.275 147.946 174.21C148.585 173.145 149.969 172.783 151.045 173.422C151.151 173.486 153.685 175.019 156.305 178.362C157.071 179.353 156.901 180.779 155.911 181.546C155.485 181.887 154.984 182.036 154.505 182.036Z" fill="#C24E4E"/>
<path d="M154.001 217.459C148.325 217.459 142.799 215.872 138.221 212.145C132.109 207.162 127.786 199.326 126.36 190.648C126.157 189.413 126.998 188.242 128.234 188.039C129.479 187.848 130.64 188.678 130.842 189.913C132.088 197.516 135.825 204.33 141.085 208.621C150.37 216.191 164.755 212.912 174.156 205.757C175.157 205.001 176.573 205.193 177.34 206.193C178.096 207.194 177.904 208.61 176.903 209.377C170.547 214.222 162.114 217.459 154.001 217.459Z" fill="#C24E4E"/>
<path d="M105.172 178.734C104.395 178.734 103.639 178.34 103.223 177.626C102.585 176.551 102.936 175.156 104.022 174.517C114.638 168.225 122.336 154.212 122.41 154.063C123.007 152.967 124.38 152.551 125.487 153.148C126.584 153.744 126.999 155.118 126.403 156.225C126.062 156.842 118.045 171.472 106.343 178.414C105.971 178.638 105.566 178.734 105.172 178.734Z" fill="#C24E4E"/>
<path d="M196.214 177.584C195.905 177.584 195.586 177.52 195.288 177.381C182.862 171.813 173.194 158.184 172.789 157.609C172.065 156.587 172.321 155.171 173.343 154.447C174.365 153.723 175.781 153.978 176.505 155C176.601 155.128 185.875 168.193 197.151 173.239C198.29 173.751 198.801 175.092 198.29 176.242C197.907 177.083 197.076 177.584 196.214 177.584Z" fill="#C24E4E"/>
<path d="M217.57 56.3896C217.304 55.6431 217.149 54.8366 217.149 53.9958C217.149 53.4296 217.218 52.8891 217.347 52.3657C214.241 52.0826 211.255 49.809 209.822 46.3685C205.636 47.1665 202.504 50.2809 202.504 54.0044C202.504 58.0626 206.219 61.4001 210.972 61.8033C212.353 58.8777 214.876 56.8958 217.57 56.3896Z" fill="#FFA9A9"/>
<path d="M247.463 53.9959C247.463 49.7232 243.353 46.2656 238.239 46.1712C236.978 49.3714 234.387 51.6107 231.573 52.2284C231.719 52.7947 231.805 53.3867 231.805 54.0044C231.805 54.8023 231.667 55.5573 231.427 56.278C234.499 56.4153 237.502 58.5087 239.063 61.7947C243.79 61.3572 247.463 58.0369 247.463 53.9959Z" fill="#FFA9A9"/>
<path d="M224.417 61.2199C221.251 61.1941 218.575 59.1865 217.579 56.3895C214.885 56.8957 212.363 58.8776 210.982 61.7947C210.836 62.1121 210.69 62.4382 210.57 62.7728C208.82 67.6117 210.758 72.708 214.894 74.1665C218.677 75.4964 222.993 73.3 225.035 69.2075C224.846 68.83 224.675 68.4439 224.52 68.0321C223.654 65.6727 223.688 63.2532 224.417 61.2199Z" fill="#FFA9A9"/>
<path d="M231.426 56.2697C230.457 59.1438 227.72 61.2201 224.477 61.2201C224.451 61.2201 224.434 61.2201 224.408 61.2201C223.679 63.2535 223.653 65.6729 224.502 68.0323C224.648 68.4442 224.828 68.8303 225.017 69.2078C227.059 73.3002 231.375 75.4966 235.158 74.1668C239.294 72.7168 241.224 67.6119 239.482 62.773C239.362 62.4298 239.217 62.1038 239.071 61.7864C237.509 58.5004 234.498 56.3984 231.426 56.2697Z" fill="#FFA9A9"/>
<path d="M217.347 52.3654C217.999 49.5942 220.264 47.4321 223.121 46.9002C222.572 44.9869 222.615 42.782 223.387 40.6199C223.558 40.148 223.764 39.6933 223.996 39.2643C221.92 35.2919 217.681 33.1813 213.949 34.494C209.814 35.944 207.883 41.0489 209.625 45.8878C209.685 46.0508 209.754 46.2052 209.822 46.3682C211.255 49.8087 214.241 52.0823 217.347 52.3654Z" fill="#FFA9A9"/>
<path d="M223.113 46.9007C223.55 46.8149 224.005 46.772 224.477 46.772C227.9 46.772 230.766 49.0885 231.572 52.2201C234.386 51.6024 236.977 49.3717 238.239 46.1629C238.273 46.0685 238.324 45.9741 238.359 45.8798C240.109 41.0408 238.17 35.9445 234.034 34.486C230.302 33.1733 226.073 35.2839 223.988 39.2563C223.765 39.6853 223.55 40.14 223.379 40.6118C222.606 42.7825 222.564 44.9875 223.113 46.9007Z" fill="#FFA9A9"/>
<path d="M224.475 46.7721C224.012 46.7721 223.557 46.8236 223.111 46.9008C220.254 47.4328 217.989 49.5862 217.337 52.366C217.217 52.8894 217.14 53.4385 217.14 53.9962C217.14 54.837 217.294 55.6349 217.56 56.3899C218.555 59.1869 221.232 61.1945 224.398 61.2202C224.424 61.2202 224.441 61.2202 224.467 61.2202C227.71 61.2202 230.455 59.144 231.416 56.2698C231.657 55.5577 231.794 54.7941 231.794 53.9962C231.794 53.387 231.708 52.795 231.562 52.2202C230.773 49.0972 227.899 46.7721 224.475 46.7721Z" fill="#FFFBC7"/>
<path d="M64.6148 57.539C64.2974 56.9727 64.0572 56.3378 63.937 55.66C63.8598 55.2053 63.8427 54.7506 63.8684 54.313C61.3117 54.5104 58.5748 53.0776 56.9361 50.4865C53.6501 51.7048 51.5566 54.6562 52.08 57.6677C52.6548 60.9537 56.1296 63.1501 60.0333 62.824C60.7368 60.2673 62.4957 58.3197 64.6148 57.539Z" fill="#FCD0D0"/>
<path d="M88.4834 51.5161C87.8829 48.0585 84.0649 45.8106 79.9124 46.4369C79.3461 49.1995 77.5616 51.3702 75.3652 52.2539C75.5625 52.6915 75.7169 53.1633 75.8027 53.661C75.9143 54.3044 75.9143 54.9393 75.8199 55.5485C78.3251 55.2396 81.0535 56.5266 82.778 58.9718C86.5444 57.9765 89.0497 54.7849 88.4834 51.5161Z" fill="#FCD0D0"/>
<path d="M70.8355 60.5163C68.2702 60.9282 65.8164 59.6669 64.6153 57.5392C62.5047 58.3199 60.7373 60.2675 60.0252 62.8157C59.9479 63.0902 59.8793 63.3734 59.8278 63.6651C59.09 67.8262 61.3722 71.687 64.9327 72.2962C68.1844 72.8539 71.3674 70.4859 72.4485 66.891C72.2426 66.6079 72.0452 66.3247 71.8736 66.0159C70.8441 64.2227 70.5266 62.258 70.8355 60.5163Z" fill="#FCD0D0"/>
<path d="M75.8183 55.5402C75.4408 58.0026 73.5104 60.0617 70.885 60.4993C70.8678 60.4993 70.8507 60.4993 70.8335 60.5079C70.5332 62.2495 70.8421 64.2143 71.8717 66.016C72.0518 66.3248 72.2492 66.6166 72.4465 66.8911C74.6772 69.9283 78.478 71.1123 81.3607 69.5165C84.5009 67.7748 85.3588 63.382 83.2568 59.7014C83.111 59.444 82.948 59.1952 82.785 58.9635C81.0519 56.5269 78.3235 55.2314 75.8183 55.5402Z" fill="#FCD0D0"/>
<path d="M63.8681 54.313C64.0053 51.9793 65.5325 49.9202 67.7718 49.0966C67.0511 47.6209 66.7766 45.8277 67.1112 43.9745C67.1798 43.5627 67.2913 43.1766 67.4114 42.7905C65.1722 39.8563 61.44 38.7238 58.6087 40.3024C55.4686 42.0441 54.6106 46.4369 56.7126 50.1175C56.7813 50.2462 56.8671 50.3578 56.9443 50.4779C58.5744 53.0775 61.3113 54.5103 63.8681 54.313Z" fill="#FCD0D0"/>
<path d="M67.7709 49.0966C68.1141 48.9679 68.4745 48.8735 68.852 48.8049C71.6232 48.333 74.2743 49.8259 75.3639 52.2539C77.5603 51.3702 79.3449 49.2081 79.9111 46.4369C79.9283 46.3511 79.954 46.2739 79.9626 46.1881C80.7005 42.027 78.4183 38.1661 74.8577 37.557C71.6575 37.0079 68.5174 39.2901 67.3934 42.7991C67.2733 43.1766 67.1618 43.5713 67.0932 43.9831C66.7757 45.8277 67.0503 47.6209 67.7709 49.0966Z" fill="#FCD0D0"/>
<path d="M68.8522 48.8051C68.4747 48.8651 68.1143 48.9681 67.7712 49.0968C65.5319 49.9119 64.0047 51.971 63.8674 54.3132C63.8417 54.7594 63.8588 55.2055 63.9361 55.6602C64.0562 56.338 64.2878 56.9729 64.6138 57.5392C65.815 59.6669 68.2688 60.9281 70.8341 60.5163C70.8512 60.5163 70.8684 60.5163 70.8856 60.5077C73.5109 60.0616 75.4413 58.0025 75.8189 55.5487C75.9132 54.9395 75.9132 54.3046 75.8017 53.6612C75.7159 53.1635 75.5615 52.7002 75.3641 52.2541C74.2745 49.8261 71.6234 48.3332 68.8522 48.8051Z" fill="#FFFBC7"/>
<path d="M138.278 36.9138C137.943 35.9787 137.754 34.9663 137.754 33.9195C137.754 33.216 137.84 32.5296 137.994 31.8776C134.099 31.5258 130.367 28.6774 128.574 24.3618C123.323 25.3571 119.402 29.2522 119.402 33.9195C119.402 38.9987 124.053 43.177 130.007 43.6832C131.749 40.0282 134.906 37.5487 138.278 36.9138Z" fill="#FF7E7E"/>
<path d="M175.718 33.9197C175.718 28.5746 170.57 24.2333 164.17 24.1132C162.591 28.1284 159.348 30.9254 155.822 31.6976C156.002 32.4097 156.114 33.1475 156.114 33.9197C156.114 34.9149 155.942 35.8673 155.642 36.7596C159.485 36.9311 163.252 39.5565 165.208 43.6662C171.111 43.1342 175.718 38.9731 175.718 33.9197Z" fill="#FF7E7E"/>
<path d="M146.847 42.9623C142.883 42.9279 139.529 40.4141 138.276 36.9136C134.896 37.5485 131.738 40.028 130.005 43.683C129.816 44.0776 129.645 44.4809 129.49 44.9098C127.303 50.9671 129.722 57.3589 134.904 59.1778C139.649 60.8422 145.045 58.0967 147.602 52.9661C147.37 52.4942 147.147 52.0138 146.959 51.499C145.903 48.5304 145.938 45.5018 146.847 42.9623Z" fill="#FF7E7E"/>
<path d="M155.635 36.7594C154.425 40.3628 150.985 42.9625 146.926 42.9625C146.901 42.9625 146.875 42.9625 146.849 42.9625C145.94 45.502 145.897 48.5392 146.969 51.4906C147.158 52.0054 147.373 52.4859 147.613 52.9577C150.17 58.0884 155.575 60.8338 160.311 59.1694C165.493 57.3505 167.912 50.9673 165.724 44.9014C165.57 44.4725 165.39 44.0692 165.201 43.666C163.245 39.5563 159.487 36.9224 155.635 36.7594Z" fill="#FF7E7E"/>
<path d="M138.002 31.8693C138.817 28.3946 141.657 25.692 145.226 25.0314C144.531 22.6376 144.591 19.8664 145.56 17.1638C145.775 16.5718 146.041 16.0056 146.324 15.4651C143.716 10.4889 138.413 7.84635 133.746 9.48506C128.564 11.3039 126.145 17.6872 128.332 23.753C128.41 23.9589 128.495 24.1562 128.581 24.3536C130.366 28.6691 134.106 31.5262 138.002 31.8693Z" fill="#FF7E7E"/>
<path d="M145.228 25.0314C145.777 24.9284 146.352 24.8683 146.935 24.8683C151.225 24.8683 154.82 27.7768 155.824 31.6977C159.35 30.9256 162.602 28.1286 164.172 24.1133C164.223 23.9932 164.275 23.8817 164.318 23.753C166.506 17.6958 164.086 11.3039 158.904 9.48506C154.237 7.84635 148.926 10.4889 146.326 15.4651C146.043 16.0056 145.777 16.5718 145.563 17.1638C144.585 19.8664 144.533 22.6291 145.228 25.0314Z" fill="#FF7E7E"/>
<path d="M146.935 24.8681C146.351 24.8681 145.785 24.9281 145.227 25.0311C141.65 25.6917 138.818 28.4029 138.003 31.8691C137.849 32.5297 137.763 33.2075 137.763 33.911C137.763 34.9663 137.952 35.9701 138.286 36.9053C139.531 40.4058 142.894 42.9196 146.858 42.954C146.883 42.954 146.909 42.954 146.935 42.954C150.993 42.954 154.433 40.3543 155.643 36.7509C155.943 35.8586 156.115 34.9063 156.115 33.911C156.115 33.1474 156.003 32.401 155.823 31.6889C154.811 27.7766 151.225 24.8681 146.935 24.8681Z" fill="#FFE885"/>
<defs>
<filter id="filter0_i_3_12486" x="17.9524" y="81" width="249.358" height="213.313" filterUnits="userSpaceOnUse" color-interpolation-filters="sRGB">
<feFlood flood-opacity="0" result="BackgroundImageFix"/>
<feBlend mode="normal" in="SourceGraphic" in2="BackgroundImageFix" result="shape"/>
<feColorMatrix in="SourceAlpha" type="matrix" values="0 0 0 0 0 0 0 0 0 0 0 0 0 0 0 0 0 0 127 0" result="hardAlpha"/>
<feOffset dx="-14.0476" dy="4.14852"/>
<feGaussianBlur stdDeviation="7.02381"/>
<feComposite in2="hardAlpha" operator="arithmetic" k2="-1" k3="1"/>
<feColorMatrix type="matrix" values="0 0 0 0 0.925 0 0 0 0 0.206583 0 0 0 0 0.206583 0 0 0 0.1 0"/>
<feBlend mode="normal" in2="shape" result="effect1_innerShadow_3_12486"/>
</filter>
<filter id="filter1_f_3_12486" x="17.9524" y="69.7275" width="249.046" height="188.827" filterUnits="userSpaceOnUse" color-interpolation-filters="sRGB">
<feFlood flood-opacity="0" result="BackgroundImageFix"/>
<feBlend mode="normal" in="SourceGraphic" in2="BackgroundImageFix" result="shape"/>
<feGaussianBlur stdDeviation="7.02381" result="effect1_foregroundBlur_3_12486"/>
</filter>
<filter id="filter2_f_3_12486" x="163.535" y="155.377" width="102.593" height="80.7124" filterUnits="userSpaceOnUse" color-interpolation-filters="sRGB">
<feFlood flood-opacity="0" result="BackgroundImageFix"/>
<feBlend mode="normal" in="SourceGraphic" in2="BackgroundImageFix" result="shape"/>
<feGaussianBlur stdDeviation="14.0476" result="effect1_foregroundBlur_3_12486"/>
</filter>
<filter id="filter3_f_3_12486" x="33.496" y="157.355" width="102.593" height="80.7124" filterUnits="userSpaceOnUse" color-interpolation-filters="sRGB">
<feFlood flood-opacity="0" result="BackgroundImageFix"/>
<feBlend mode="normal" in="SourceGraphic" in2="BackgroundImageFix" result="shape"/>
<feGaussianBlur stdDeviation="14.0476" result="effect1_foregroundBlur_3_12486"/>
</filter>
<linearGradient id="paint0_linear_3_12486" x1="93.0507" y1="89.494" x2="241.165" y2="277.092" gradientUnits="userSpaceOnUse">
<stop offset="0.132162" stop-color="#FFBFBF"/>
<stop offset="0.564" stop-color="#FFBDBD"/>
<stop offset="0.759" stop-color="#FFABAB"/>
<stop offset="0.8541" stop-color="#FFC4C4"/>
<stop offset="0.8542" stop-color="#FF6D6D"/>
</linearGradient>
<linearGradient id="paint1_linear_3_12486" x1="90.53" y1="83.7721" x2="247.916" y2="358.891" gradientUnits="userSpaceOnUse">
<stop stop-color="#FFCCCC"/>
<stop offset="0.759" stop-color="#FFC1C1"/>
</linearGradient>
</defs>
</svg>
